<?xml version="1.0" encoding="UTF-8" standalone="no"?>
<svg xmlns="http://www.w3.org/2000/svg" xml:space="preserve" width="600" height="450.005">
  <path fill="#fff" d="M39.995.3025C18.115.3025.3025 18.115.3025 39.995v370.01c0 21.895 17.8125 39.6975 39.6925 39.6975h520.01c21.895 0 39.7075-17.8025 39.7075-39.6975V39.995c0-21.88-17.8125-39.6925-39.7075-39.6925"/>
  <path d="M39.995 449.41375c-21.72875 0-39.40375-17.675-39.40375-39.40875V40.01C.59125 18.28125 18.26625.59125 39.995.59125h520.01c21.72875 0 39.40375 17.69 39.40375 39.41875v369.995c0 21.73375-17.675 39.40875-39.40375 39.40875H39.995zM560.005 0H39.995C17.91 0 0 17.91 0 40.01v369.995c0 22.105 17.91 40 39.995 40h520.01c22.085 0 39.995-17.895 39.995-40V40.01C600 17.91 582.09 0 560.005 0"/>
  <path d="M39.995 10.005c-16.5625 0-29.99 13.4325-29.99 29.995v370.005c0 16.5625 13.4275 30.005 29.99 30.005h520.01c16.5625 0 30.005-13.4425 30.005-30.005V40c0-16.5625-13.4425-29.995-30.005-29.995H39.995zm0 14.995h520.01c8.28625 0 15.005 6.70875 15.005 15v370.005c0 8.29125-6.71875 14.995-15.005 14.995H39.995C31.72375 425 25 418.29625 25 410.005V40c0-8.29125 6.72375-15 14.995-15z"/>
  <path d="M334.19 69.155c0 10.70375-8.6825 19.375-19.37125 19.375-10.6975 0-19.355-8.67125-19.355-19.375 0-10.68875 8.6575-19.37 19.355-19.37 10.68875 0 19.37125 8.68125 19.37125 19.37zm-33.8875 104.10125V158.725H251.88c0-9.35 7.5925-16.9325 16.9475-16.9325h31.475v-29.05375c0-9.37 7.57875-16.9575 16.93375-16.9575 9.37 0 16.95375 7.5875 16.95375 16.9575v65.3575c0 9.355-7.58375 16.9425-16.95375 16.9425h-54.99c-2.22125 0-4.15 1.51875-4.7025 3.6525L240.845 265.1275c-2.54375 10.12625-12.66125 16.415-22.85625 14.20875l19.55-90.80125c1.91375-8.92125 9.81-15.27875 18.93625-15.27875h43.8275zm-31.37125 31.475H279.15c-9.36 25.04375 3.35 52.94 28.40875 62.295 25.04375 9.355 52.93875-3.36375 62.295-28.4075 9.00375-24.0975-2.4125-51.02125-25.98125-61.31875v-10.39625c30.23875 10.68875 46.09875 43.8775 35.405 74.13125-10.69375 30.24875-43.89625 46.10875-74.13625 35.41-29.32625-10.36625-45.2875-41.9775-36.21-71.71375M59.765 380.48375H71.05l9.18875-25.06875 9.2975 25.06875H100.82l-15.35625-38.96 14.20375-35.415H88.38875l-8.15 22.04125-8.04125-22.04125h-11.28l13.8925 35.415-15.045 38.96Zm42.60375 0h11.27875l9.19375-25.06875 9.2975 25.06875h11.27875l-15.35625-38.96 14.20875-35.415h-11.28375l-8.145 22.04125-8.04625-22.04125h-11.28l13.8925 35.415-15.03875 38.96Zm69.20375 0h10.65375V351.445h5.43c7.8375 0 12.53375-2.925 15.45875-7.72875 2.51-4.0775 3.0325-8.4625 3.0325-14.9375 0-8.88125-1.1525-13.57875-4.805-17.44625-3.6575-3.86125-7.93875-5.22375-13.78875-5.22375H171.5725v74.375zm10.65375-64.34625h5.5325c8.36 0 8.36 5.7475 8.36 12.74375 0 7.4175-.1075 12.535-8.775 12.535h-5.1175V316.1375zm51.51875 64.34625H244.4v-36.875c0-11.07-7.105-16.70875-15.9825-16.70875-4.80375 0-8.77375 1.66875-11.59625 4.48625-2.8225 2.8225-4.4925 6.7925-4.805 11.495h10.3425c.625-3.4475 3.34-5.3275 6.05875-5.3275 3.97 0 5.3275 2.715 5.3275 6.265v5.53625c-2.1975-.1025-3.6575-.3125-5.1225-.3125-13.36875 0-16.81625 5.85-16.81625 17.96375 0 11.7 6.5825 14.1025 11.49 14.1025 5.12125 0 7.41625-2.1925 10.23875-6.055h.21v5.43zm0-15.56125c0 4.28125-2.1975 6.78625-5.7475 6.78625-3.44625 0-5.53625-2.715-5.53625-6.78625 0-5.645 3.76-7.525 8.35875-7.525.9375 0 1.7725.1075 2.925.3125v7.2125zm20.60125 15.56125H265V349.0425c0-8.67125 6.3725-11.48875 10.86375-11.48875 1.1475 0 2.1925.205 3.2375.625V326.9c-6.16125 0-9.71125 2.40125-14.10125 6.26375V327.525h-10.65375v52.95875zm30.97125 0h10.65375V365.65l5.1175-8.0425 9.61 22.87625H322.295l-15.24875-31.44125 12.63625-21.5175h-10.65375l-12.8475 23.085h-.21v-44.50125H285.3175v74.375zm71.7475-38.125c-.1075-8.775-6.37125-15.45875-15.04375-15.45875-8.56375 0-15.66875 6.47375-15.66875 15.45875 0 7.09875 4.0775 12.11375 10.76125 14.62375l5.1175 1.88c4.0725 1.5675 5.3275 3.55 5.3275 6.475 0 3.54875-2.925 5.74625-5.9525 5.74625-3.97 0-5.3275-3.0325-5.74625-5.95625h-10.03c.42 10.44875 7.525 15.98125 15.87875 15.98125 9.195 0 15.87875-7.2075 15.87875-15.98125 0-6.265-2.51-11.905-10.44375-14.9375l-6.27-2.505c-3.97-1.56625-4.4925-3.44625-4.4925-5.43375 0-2.715 1.88-5.3275 5.225-5.3275 2.8175 0 5.3275 1.88 5.43 5.435H357.065zm11.3725-14.83375H363.11v8.35375h5.3275v32.1725c0 5.645 3.2375 12.4325 12.84625 12.4325h4.385v-10.03c-4.6975 0-6.5775-.3125-6.5775-5.21875v-29.35625h6.5775V327.525h-6.5775v-16.09H368.4375v16.09zm41.7825 52.95875h10.65375v-36.875c0-11.07-7.09875-16.70875-15.98125-16.70875-4.805 0-8.77375 1.66875-11.59125 4.48625-2.8225 2.8225-4.4925 6.7925-4.805 11.495h10.34125c.625-3.4475 3.34-5.3275 6.055-5.3275 3.97 0 5.3275 2.715 5.3275 6.265v5.53625c-2.1925-.1025-3.6525-.3125-5.1175-.3125-13.36875 0-16.81625 5.85-16.81625 17.96375 0 11.7 6.5825 14.1025 11.48875 14.1025 5.1175 0 7.4175-2.1925 10.24-6.055h.205v5.43zm0-15.56125c0 4.28125-2.1925 6.78625-5.7425 6.78625-3.4475 0-5.5375-2.715-5.5375-6.78625 0-5.645 3.76-7.525 8.355-7.525.9425 0 1.7775.1075 2.925.3125v7.2125zm-18.38375-45.65H401.24v-10.65375h-9.40375v10.65375zm16.92375 0h9.39875v-10.65375H408.76v10.65375zm20.06375 61.21125h10.65375v-35.62c0-4.7025 1.3575-7.31 5.3275-7.31 3.345 0 5.22375 2.4025 5.22375 6.265v36.665h10.655v-40.635c0-9.5025-5.64-12.94875-10.9675-12.94875-4.91125 0-7.83625 2.40125-10.02875 5.74125h-.21V327.525h-10.65375v52.95875zm51.25375-36.665c0-3.34 1.1475-6.265 5.225-6.265 3.0275 0 5.3275 2.4025 5.3275 5.7425v20.58125c0 3.86125-2.09 6.57625-5.3275 6.57625-3.6575 0-5.225-2.925-5.225-7.20625v-19.42875zm10.5525 36.665h10.65375v-74.375H490.63v26.22h-.21c-2.3-3.4475-5.64-5.42875-9.82-5.42875-5.11625 0-7.72875 1.98125-9.50625 4.80375-1.3575 2.1925-1.67 5.22-1.67 12.8475v20.16125c0 5.84875.5225 9.08625 1.7775 11.38625 1.88 3.4475 5.015 5.01 9.29625 5.01 5.3275 0 7.4175-2.4025 10.1325-5.43v4.805zm50.21-22.45625v-14.62375c0-9.2975-6.06-16.50375-15.87875-16.50375-6.475 0-11.3875 3.02625-13.8925 7.62125-1.46375 2.715-1.98625 6.48-1.98625 10.7625V362.725c0 4.28125.5225 8.04625 1.98625 10.76125 2.505 4.595 7.4175 7.6225 13.8925 7.6225 4.9075 0 8.77375-1.7725 11.59625-4.6975 2.715-2.8225 4.2825-6.895 4.2825-11.28375h-10.655c-.21 2.29875-1.15125 5.32625-5.22375 5.32625-3.2375 0-5.225-1.88-5.225-5.21875v-7.2075H540.84zm-21.10375-14.41875c0-3.97 1.9875-6.055 5.225-6.055s5.22375 2.085 5.22375 6.055v6.05875h-10.44875v-6.05875z"/>
</svg>