<?xml version="1.0" encoding="UTF-8" standalone="no"?>
<svg
   xmlns:dc="http://purl.org/dc/elements/1.1/"
   xmlns:cc="http://creativecommons.org/ns#"
   xmlns:rdf="http://www.w3.org/1999/02/22-rdf-syntax-ns#"
   xmlns:svg="http://www.w3.org/2000/svg"
   xmlns="http://www.w3.org/2000/svg"
   viewBox="0 0 260.00528 260.09903"
   height="260.09903"
   width="260.00528"
   xml:space="preserve"
   id="svg14168"
   version="1.1"><metadata
     id="metadata14174"><rdf:RDF><cc:Work
         rdf:about=""><dc:format>image/svg+xml</dc:format><dc:type
           rdf:resource="http://purl.org/dc/dcmitype/StillImage" /><dc:title></dc:title></cc:Work></rdf:RDF></metadata><defs
     id="defs14172" /><g
     transform="matrix(1.3333333,0,0,-1.3333333,0,260.09902)"
     id="g14176"><g
       id="g14178"><path
         id="path14180"
         style="fill:#000000;fill-opacity:1;fill-rule:evenodd;stroke:none"
         d="m 8.84,188.711 0.015,0.34 0.02,0.316 0.035,0.321 0.07,0.3 0.071,0.321 0.07,0.3 0.109,0.301 0.106,0.281 0.141,0.286 0.14,0.265 0.145,0.266 0.176,0.265 0.175,0.247 0.18,0.23 0.211,0.25 0.195,0.211 0.231,0.215 0.461,0.39 0.265,0.176 0.246,0.16 0.266,0.161 0.285,0.14 0.285,0.125 0.282,0.106 0.3,0.105 0.301,0.09 0.301,0.07 0.32,0.051 0.32,0.035 0.317,0.039 h 0.656 l 0.32,-0.039 0.317,-0.035 0.32,-0.051 0.301,-0.07 0.301,-0.09 0.301,-0.105 0.285,-0.106 0.285,-0.125 0.265,-0.14 0.532,-0.321 0.246,-0.176 0.25,-0.195 0.23,-0.195 0.211,-0.215 0.211,-0.211 0.195,-0.25 0.196,-0.23 0.179,-0.247 0.157,-0.265 0.16,-0.266 0.141,-0.265 0.124,-0.286 0.126,-0.281 0.089,-0.301 0.086,-0.3 0.071,-0.321 0.054,-0.3 0.055,-0.321 0.016,-0.316 v -0.656 l -0.016,-0.336 -0.055,-0.321 -0.054,-0.3 -0.071,-0.321 -0.086,-0.301 -0.089,-0.281 -0.126,-0.304 -0.124,-0.282 -0.141,-0.265 -0.16,-0.266 -0.157,-0.266 -0.179,-0.25 -0.391,-0.461 -0.211,-0.23 -0.211,-0.211 -0.23,-0.195 -0.25,-0.196 -0.246,-0.175 -0.532,-0.321 -0.265,-0.14 -0.285,-0.125 -0.285,-0.106 -0.301,-0.105 -0.301,-0.09 -0.301,-0.07 -0.32,-0.055 -0.317,-0.035 -0.32,-0.016 -0.336,-0.019 -0.32,0.019 -0.317,0.016 -0.32,0.035 -0.32,0.055 -0.301,0.07 -0.301,0.09 -0.3,0.105 -0.282,0.106 -0.285,0.125 -0.285,0.14 -0.266,0.16 -0.246,0.161 -0.265,0.175 -0.461,0.391 -0.231,0.211 -0.195,0.23 -0.211,0.231 -0.18,0.23 -0.175,0.25 -0.176,0.266 -0.145,0.266 -0.14,0.265 -0.141,0.282 -0.106,0.304 -0.109,0.281 -0.07,0.301 -0.071,0.321 -0.07,0.3 -0.035,0.321 -0.02,0.336 z" /><path
         id="path14182"
         style="fill:#000000;fill-opacity:1;fill-rule:evenodd;stroke:none"
         d="M 15.234,139.887 0,139.852 l 0.086,0.546 0.09,0.551 0.105,0.532 0.125,0.55 0.125,0.532 0.121,0.531 0.16,0.531 0.145,0.531 0.156,0.512 0.18,0.531 0.176,0.516 0.195,0.516 0.195,0.511 0.211,0.496 0.215,0.516 0.461,0.992 0.246,0.477 0.25,0.496 0.266,0.476 0.265,0.481 0.282,0.476 0.285,0.461 0.902,1.383 0.32,0.442 0.336,0.445 0.336,0.426 0.336,0.441 0.356,0.426 0.371,0.406 -0.086,-0.051 -0.32,0.371 -0.301,0.391 -0.301,0.406 -0.25,0.407 -0.246,0.425 -0.231,0.442 -0.214,0.445 -0.176,0.441 -0.16,0.461 -0.141,0.481 -0.125,0.461 -0.105,0.476 -0.071,0.496 -0.07,0.477 -0.02,0.496 -0.015,0.496 v 6.219 l 0.015,0.551 0.036,0.55 0.07,0.532 0.09,0.531 0.125,0.531 0.14,0.496 0.176,0.512 0.195,0.481 0.215,0.476 0.231,0.461 0.265,0.441 0.266,0.446 0.301,0.426 0.316,0.406 0.34,0.39 0.371,0.371 0.371,0.356 0.391,0.336 0.391,0.32 0.421,0.301 0.446,0.281 0.441,0.25 0.461,0.246 0.481,0.215 0.496,0.195 0.496,0.157 0.511,0.144 0.516,0.121 0.531,0.09 0.532,0.071 0.546,0.054 h 1.118 l 0.531,-0.054 0.551,-0.071 0.511,-0.09 0.532,-0.121 0.515,-0.144 0.496,-0.157 0.477,-0.195 0.48,-0.215 0.461,-0.246 0.461,-0.25 0.422,-0.281 0.426,-0.301 0.41,-0.32 0.387,-0.336 0.375,-0.356 0.351,-0.371 0.34,-0.39 0.317,-0.406 0.3,-0.426 0.286,-0.426 0.246,-0.461 0.25,-0.461 0.211,-0.476 0.195,-0.481 0.16,-0.512 0.16,-0.496 0.211,-1.062 0.07,-0.532 0.036,-0.55 0.019,-0.551 v -6.219 l -0.019,-0.496 -0.036,-0.496 -0.05,-0.477 -0.09,-0.496 -0.09,-0.476 -0.121,-0.461 -0.145,-0.481 -0.156,-0.461 -0.195,-0.441 -0.196,-0.445 -0.23,-0.442 -0.25,-0.425 -0.266,-0.407 -0.281,-0.406 -0.301,-0.391 -0.32,-0.371 -0.09,0.051 0.356,-0.406 0.355,-0.426 0.352,-0.441 0.34,-0.426 0.316,-0.445 0.32,-0.442 0.321,-0.461 0.601,-0.922 0.281,-0.461 0.266,-0.476 0.285,-0.481 0.246,-0.476 0.266,-0.496 0.23,-0.477 0.25,-0.496 0.211,-0.496 0.231,-0.516 0.195,-0.496 0.215,-0.511 0.351,-1.032 0.18,-0.531 0.156,-0.512 0.161,-0.531 0.144,-0.531 0.141,-0.531 0.125,-0.532 0.105,-0.55 0.106,-0.532 0.105,-0.551 0.09,-0.546 z" /><path
         id="path14184"
         style="fill:#000000;fill-opacity:1;fill-rule:evenodd;stroke:none"
         d="m 14.473,138.363 0.019,-20.605 v -0.231 l -0.035,-0.23 -0.055,-0.211 -0.09,-0.215 -0.085,-0.191 -0.11,-0.196 -0.14,-0.16 -0.141,-0.179 -0.16,-0.141 -0.176,-0.125 -0.18,-0.121 -0.211,-0.09 -0.195,-0.07 -0.23,-0.055 -0.211,-0.035 -0.231,-0.016 -0.23,0.016 -0.231,0.035 -0.215,0.055 -0.211,0.07 -0.195,0.09 -0.195,0.121 -0.16,0.125 -0.176,0.141 -0.141,0.179 -0.125,0.16 -0.125,0.196 -0.09,0.191 -0.07,0.215 -0.051,0.211 -0.035,0.23 -0.019,0.231 -0.071,20.605 z" /><path
         id="path14186"
         style="fill:#000000;fill-opacity:1;fill-rule:evenodd;stroke:none"
         d="m 20.586,138.363 v -16.086 l -0.02,-0.23 -0.035,-0.231 -0.051,-0.214 -0.089,-0.211 -0.09,-0.196 -0.106,-0.175 -0.14,-0.18 -0.145,-0.156 -0.156,-0.145 -0.18,-0.141 -0.176,-0.105 -0.195,-0.105 -0.211,-0.075 -0.215,-0.05 -0.23,-0.036 -0.231,-0.019 -0.23,0.019 -0.231,0.036 -0.21,0.05 -0.215,0.075 -0.192,0.105 -0.195,0.105 -0.16,0.125 -0.16,0.161 -0.161,0.156 -0.124,0.18 -0.106,0.175 -0.105,0.196 -0.071,0.211 -0.054,0.214 -0.036,0.231 -0.015,0.23 -0.035,16.086 z" /><path
         id="path14188"
         style="fill:#fefefe;fill-opacity:1;fill-rule:evenodd;stroke:none"
         d="m 9.141,157.566 0.125,13.625 0.015,0.141 0.035,0.125 0.071,0.125 0.09,0.106 0.105,0.089 0.125,0.051 0.125,0.055 0.141,0.015 0.14,-0.015 0.145,-0.055 0.105,-0.051 0.106,-0.089 0.09,-0.106 0.07,-0.125 0.035,-0.125 0.016,-0.141 v -11.605 l -0.035,-0.16 -0.036,-0.141 -0.05,-0.14 -0.071,-0.141 -0.074,-0.145 -0.086,-0.121 -0.105,-0.109 z" /><path
         id="path14190"
         style="fill:#fefefe;fill-opacity:1;fill-rule:evenodd;stroke:none"
         d="m 21.363,157.566 -1.027,1.063 -0.106,0.109 -0.089,0.121 -0.086,0.145 -0.071,0.141 -0.054,0.14 -0.035,0.141 -0.02,0.16 v 11.746 l 0.109,0.25 0.086,0.106 0.106,0.089 0.125,0.051 0.125,0.055 0.16,0.015 0.141,-0.015 0.125,-0.055 0.125,-0.051 0.105,-0.089 0.086,-0.106 0.109,-0.25 v -0.141 z" /><path
         id="path14192"
         style="fill:#000000;fill-opacity:1;fill-rule:evenodd;stroke:none"
         d="m 169.953,151.684 h 12.594 v -6.059 l 11.5,-18.281 0.211,-0.391 0.195,-0.39 0.176,-0.407 0.125,-0.425 0.125,-0.442 0.07,-0.426 0.055,-0.445 v -0.848 l -0.055,-0.41 -0.054,-0.406 -0.086,-0.391 -0.125,-0.371 -0.125,-0.39 -0.161,-0.352 -0.195,-0.355 -0.191,-0.356 -0.231,-0.316 -0.25,-0.321 -0.265,-0.3 -0.282,-0.286 -0.304,-0.265 -0.317,-0.246 -0.336,-0.231 -15.769,25.246 0.09,-22.109 v -0.32 l -0.036,-0.336 -0.035,-0.321 -0.054,-0.3 -0.071,-0.321 -0.09,-0.3 -0.105,-0.282 -0.105,-0.3 -0.125,-0.286 -0.141,-0.265 -0.32,-0.532 -0.176,-0.25 -0.195,-0.23 -0.196,-0.227 -0.211,-0.23 -0.215,-0.215 -0.23,-0.195 -0.246,-0.195 -0.25,-0.176 -0.531,-0.321 -0.266,-0.14 -0.281,-0.125 -0.285,-0.106 -0.301,-0.105 -0.301,-0.09 -0.301,-0.07 -0.32,-0.055 -0.32,-0.035 -0.317,-0.016 -0.336,-0.019 z" /><path
         id="path14194"
         style="fill:#000000;fill-opacity:1;fill-rule:evenodd;stroke:none"
         d="m 169.953,153.262 v 6.961 l -4.199,-2.532 -0.32,-0.175 -0.336,-0.16 -0.356,-0.145 -0.355,-0.105 -0.352,-0.086 -0.375,-0.055 -0.371,-0.035 -0.371,-0.02 -0.356,0.02 -0.351,0.015 -0.356,0.075 -0.355,0.07 -0.336,0.105 -0.32,0.125 -0.336,0.141 -0.301,0.16 -0.301,0.195 -0.285,0.196 -0.281,0.211 -0.266,0.246 -0.23,0.25 -0.25,0.285 -0.211,0.281 -0.195,0.301 11.765,7.051 -0.109,7.086 0.019,0.34 0.016,0.316 0.035,0.32 0.055,0.321 0.07,0.3 0.09,0.301 0.105,0.301 0.106,0.281 0.144,0.285 0.141,0.266 0.141,0.285 0.16,0.246 0.195,0.25 0.176,0.246 0.195,0.231 0.215,0.211 0.227,0.215 0.461,0.39 0.25,0.176 0.531,0.32 0.285,0.141 0.266,0.125 0.3,0.121 0.282,0.09 0.3,0.09 0.321,0.07 0.32,0.051 0.316,0.054 0.321,0.02 h 0.726 l 0.813,-0.109 0.39,-0.086 0.391,-0.125 0.371,-0.125 0.356,-0.16 0.355,-0.192 0.352,-0.195 0.32,-0.231 0.32,-0.25 0.301,-0.265 0.281,-0.282 0.266,-0.3 0.25,-0.321 0.23,-0.336 11.145,-17.839 0.191,-0.34 0.18,-0.352 0.141,-0.355 0.125,-0.356 0.086,-0.371 0.074,-0.39 0.035,-0.372 0.016,-0.39 -0.016,-0.352 -0.035,-0.355 -0.055,-0.336 -0.07,-0.356 -0.106,-0.32 -0.125,-0.336 -0.125,-0.32 -0.16,-0.301 -0.176,-0.301 -0.195,-0.281 -0.211,-0.266 -0.23,-0.265 -0.25,-0.25 -0.266,-0.231 -0.281,-0.211 -0.301,-0.195 -8.453,13.465 v -11.871 z" /><path
         id="path14196"
         style="fill:#000000;fill-opacity:1;fill-rule:evenodd;stroke:none"
         d="m 165.895,188.711 v 0.34 l 0.035,0.316 0.035,0.321 0.055,0.3 0.07,0.321 0.09,0.3 0.105,0.301 0.106,0.281 0.125,0.286 0.14,0.265 0.321,0.531 0.175,0.247 0.196,0.23 0.195,0.25 0.426,0.426 0.23,0.195 0.246,0.195 0.25,0.176 0.532,0.321 0.265,0.14 0.281,0.125 0.286,0.106 0.3,0.105 0.301,0.09 0.301,0.07 0.32,0.051 0.317,0.035 0.32,0.039 h 0.656 l 0.336,-0.039 0.301,-0.035 0.32,-0.051 0.317,-0.07 0.3,-0.09 0.286,-0.105 0.3,-0.106 0.266,-0.125 0.285,-0.14 0.531,-0.321 0.246,-0.176 0.461,-0.39 0.231,-0.215 0.215,-0.211 0.191,-0.25 0.195,-0.23 0.18,-0.247 0.16,-0.265 0.157,-0.266 0.125,-0.265 0.14,-0.286 0.11,-0.281 0.105,-0.301 0.086,-0.3 0.074,-0.321 0.051,-0.3 0.035,-0.321 0.02,-0.316 0.015,-0.34 -0.015,-0.316 -0.02,-0.336 -0.035,-0.321 -0.051,-0.3 -0.074,-0.321 -0.086,-0.301 -0.105,-0.281 -0.11,-0.304 -0.14,-0.282 -0.125,-0.265 -0.157,-0.266 -0.16,-0.266 -0.18,-0.25 -0.195,-0.23 -0.191,-0.231 -0.215,-0.23 -0.231,-0.211 -0.461,-0.391 -0.246,-0.175 -0.531,-0.321 -0.285,-0.14 -0.266,-0.125 -0.3,-0.106 -0.286,-0.105 -0.3,-0.09 -0.317,-0.07 -0.32,-0.055 -0.301,-0.035 -0.336,-0.016 -0.32,-0.019 -0.336,0.019 -0.32,0.016 -0.317,0.035 -0.32,0.055 -0.301,0.07 -0.301,0.09 -0.3,0.105 -0.286,0.106 -0.281,0.125 -0.265,0.14 -0.532,0.321 -0.25,0.175 -0.246,0.196 -0.23,0.195 -0.215,0.211 -0.211,0.23 -0.391,0.461 -0.175,0.25 -0.321,0.532 -0.14,0.265 -0.125,0.282 -0.106,0.304 -0.105,0.281 -0.09,0.301 -0.07,0.321 -0.055,0.3 -0.035,0.321 -0.035,0.336 z" /><path
         id="path14198"
         style="fill:#000000;fill-opacity:1;fill-rule:evenodd;stroke:none"
         d="m 11.797,36.301 h 12.598 v -6.078 l 11.46,-18.231 0.231,-0.39 0.195,-0.391 0.16,-0.406 0.141,-0.426 L 36.688,9.953 36.777,9.512 36.812,9.07 36.832,8.625 36.812,8.219 36.777,7.813 36.723,7.422 36.617,7.016 36.512,6.641 36.371,6.27 36.211,5.898 36.035,5.543 35.84,5.207 35.609,4.871 35.359,4.551 35.094,4.25 34.812,3.965 34.512,3.699 34.172,3.453 33.836,3.238 18.086,28.414 18.176,6.359 18.156,6.039 18.141,5.719 18.105,5.402 18.051,5.082 17.98,4.781 17.891,4.481 17.785,4.18 17.68,3.895 17.539,3.613 17.414,3.328 17.254,3.063 17.094,2.816 16.918,2.566 16.723,2.32 16.527,2.09 16.316,1.859 16.086,1.664 15.855,1.449 15.625,1.273 15.375,1.098 15.109,0.918 14.844,0.777 14.562,0.637 14.297,0.496 13.996,0.387 13.711,0.281 13.41,0.211 13.09,0.141 12.773,0.07 12.453,0.035 12.133,0.016 11.816,0 Z" /><path
         id="path14200"
         style="fill:#000000;fill-opacity:1;fill-rule:evenodd;stroke:none"
         d="M 11.797,37.875 V 44.82 L 7.582,42.199 7.262,42.02 6.906,41.863 6.57,41.738 6.219,41.613 5.863,41.523 5.492,41.473 5.117,41.438 l -0.371,-0.02 -0.371,0.02 -0.355,0.035 -0.356,0.05 -0.672,0.18 -0.336,0.125 -0.32,0.141 -0.301,0.16 -0.301,0.195 -0.3,0.192 -0.532,0.461 -0.25,0.25 -0.23,0.281 -0.211,0.285 -0.195,0.301 11.781,7.156 -0.125,7.141 v 0.32 l 0.039,0.316 0.035,0.321 0.051,0.32 0.07,0.301 0.09,0.301 0.105,0.3 0.106,0.286 0.125,0.281 0.141,0.285 0.16,0.266 0.16,0.246 0.176,0.25 0.195,0.246 0.195,0.23 0.426,0.426 0.231,0.211 0.25,0.18 0.246,0.175 0.265,0.176 0.266,0.145 0.266,0.14 0.285,0.125 0.281,0.125 0.301,0.086 0.301,0.09 0.304,0.07 0.317,0.055 0.32,0.051 0.316,0.019 0.34,0.016 0.406,-0.016 0.407,-0.035 0.39,-0.07 0.391,-0.09 0.391,-0.105 0.371,-0.145 0.371,-0.156 0.355,-0.18 0.336,-0.211 0.336,-0.23 0.32,-0.231 0.282,-0.265 0.285,-0.301 0.265,-0.301 0.247,-0.32 0.23,-0.336 11.164,-17.84 0.195,-0.336 0.157,-0.34 0.16,-0.351 0.105,-0.375 0.09,-0.371 0.07,-0.372 0.036,-0.39 0.019,-0.391 v -0.351 l -0.035,-0.356 -0.055,-0.336 -0.086,-0.336 -0.09,-0.34 -0.125,-0.316 -0.14,-0.32 -0.16,-0.317 -0.176,-0.285 -0.195,-0.301 -0.215,-0.265 -0.231,-0.266 -0.246,-0.23 -0.531,-0.461 -0.301,-0.196 -8.433,13.43 V 37.875 Z" /><path
         id="path14202"
         style="fill:#000000;fill-opacity:1;fill-rule:evenodd;stroke:none"
         d="m 7.848,73.219 0.015,0.336 0.02,0.32 0.051,0.32 0.054,0.317 0.071,0.301 0.089,0.304 0.09,0.301 0.121,0.281 0.125,0.285 0.141,0.266 0.145,0.281 0.175,0.25 0.176,0.246 0.18,0.25 0.211,0.231 0.215,0.211 0.211,0.215 0.23,0.195 0.246,0.191 0.25,0.18 0.246,0.16 0.266,0.156 0.285,0.145 0.285,0.121 0.281,0.125 0.602,0.18 0.301,0.07 0.32,0.051 0.32,0.055 0.317,0.015 h 0.656 l 0.32,-0.015 0.317,-0.055 0.32,-0.051 0.301,-0.07 0.601,-0.18 0.286,-0.125 0.285,-0.121 0.281,-0.145 0.266,-0.156 0.25,-0.16 0.246,-0.18 0.25,-0.191 0.23,-0.195 0.211,-0.215 0.211,-0.211 0.215,-0.231 0.176,-0.25 0.179,-0.246 0.176,-0.25 0.141,-0.281 0.14,-0.266 0.125,-0.285 0.125,-0.281 0.09,-0.301 0.086,-0.304 0.07,-0.301 0.055,-0.317 0.055,-0.32 0.015,-0.32 0.02,-0.336 -0.02,-0.317 -0.015,-0.32 -0.055,-0.32 -0.055,-0.317 -0.07,-0.3 -0.086,-0.305 -0.09,-0.301 -0.125,-0.281 -0.125,-0.285 -0.14,-0.282 -0.141,-0.265 -0.176,-0.25 -0.179,-0.246 -0.176,-0.25 -0.215,-0.231 -0.211,-0.23 -0.211,-0.196 -0.23,-0.21 -0.25,-0.176 -0.246,-0.18 -0.25,-0.176 -0.266,-0.14 -0.281,-0.145 -0.285,-0.121 -0.286,-0.125 -0.3,-0.105 L 15.801,67.07 15.5,67 l -0.32,-0.07 -0.317,-0.035 -0.32,-0.016 -0.336,-0.02 -0.32,0.02 -0.317,0.016 -0.32,0.035 -0.32,0.07 -0.301,0.07 -0.301,0.075 -0.301,0.105 -0.281,0.125 -0.285,0.121 -0.285,0.145 -0.266,0.14 -0.246,0.176 -0.25,0.18 -0.246,0.176 -0.23,0.21 -0.211,0.196 -0.215,0.23 -0.211,0.231 -0.18,0.25 -0.176,0.246 -0.175,0.25 -0.145,0.265 -0.141,0.282 -0.125,0.285 -0.121,0.281 -0.09,0.301 -0.089,0.305 -0.071,0.3 -0.054,0.317 -0.051,0.32 -0.02,0.32 z" /><path
         id="path14204"
         style="fill:#000000;fill-opacity:1;fill-rule:evenodd;stroke:none"
         d="m 186.109,73.363 -0.019,-0.32 -0.016,-0.32 -0.035,-0.317 -0.074,-0.32 -0.141,-0.602 -0.105,-0.3 -0.106,-0.286 -0.144,-0.281 -0.141,-0.285 -0.14,-0.266 -0.176,-0.25 -0.18,-0.246 -0.176,-0.25 -0.215,-0.23 -0.191,-0.227 -0.23,-0.195 -0.231,-0.215 -0.23,-0.176 -0.266,-0.175 -0.25,-0.18 -0.266,-0.141 -0.281,-0.14 -0.57,-0.25 -0.301,-0.106 -0.602,-0.14 -0.32,-0.075 -0.316,-0.035 -0.321,-0.015 -0.316,-0.02 -0.34,0.02 -0.316,0.015 -0.321,0.035 -0.32,0.075 -0.601,0.14 -0.301,0.106 -0.281,0.125 -0.286,0.125 -0.531,0.281 -0.265,0.18 -0.25,0.175 -0.247,0.176 -0.23,0.215 -0.211,0.195 -0.215,0.227 -0.195,0.23 -0.195,0.25 -0.176,0.246 -0.16,0.25 -0.161,0.266 -0.14,0.285 -0.125,0.281 -0.121,0.286 -0.18,0.601 -0.07,0.301 -0.051,0.32 -0.055,0.317 -0.019,0.32 v 0.656 l 0.019,0.317 0.055,0.32 0.051,0.32 0.07,0.301 0.18,0.602 0.121,0.281 0.125,0.285 0.14,0.266 0.161,0.285 0.16,0.246 0.176,0.25 0.195,0.246 0.195,0.23 0.426,0.426 0.23,0.196 0.247,0.195 0.25,0.176 0.531,0.32 0.265,0.141 0.286,0.125 0.281,0.121 0.601,0.179 0.301,0.071 0.32,0.054 0.321,0.051 0.316,0.02 h 0.656 l 0.321,-0.02 0.316,-0.051 0.32,-0.054 0.301,-0.071 0.602,-0.179 0.285,-0.121 0.285,-0.125 0.281,-0.141 0.266,-0.16 0.25,-0.16 0.266,-0.176 0.461,-0.391 0.23,-0.211 0.191,-0.215 0.215,-0.23 0.176,-0.246 0.18,-0.25 0.176,-0.246 0.14,-0.285 0.141,-0.266 0.144,-0.285 0.106,-0.281 0.105,-0.301 0.141,-0.602 0.074,-0.32 0.035,-0.32 0.016,-0.317 z" /><path
         id="path14206"
         style="fill:#000000;fill-opacity:1;fill-rule:evenodd;stroke:none"
         d="m 179.695,24.481 -15.164,0.019 0.086,0.551 0.11,0.547 0.105,0.55 0.106,0.532 0.124,0.531 0.282,1.062 0.32,1.063 0.16,0.516 0.196,0.511 0.175,0.516 0.211,0.512 0.196,0.515 0.23,0.496 0.215,0.496 0.246,0.497 0.23,0.496 0.266,0.476 0.25,0.481 0.281,0.476 0.266,0.481 0.285,0.457 0.602,0.922 0.32,0.461 0.316,0.445 0.321,0.441 0.336,0.442 0.711,0.851 0.351,0.407 -0.086,-0.051 -0.32,0.39 -0.301,0.387 -0.285,0.391 -0.266,0.425 -0.246,0.407 -0.23,0.445 -0.391,0.883 -0.16,0.461 -0.141,0.48 -0.125,0.477 -0.105,0.48 -0.07,0.477 -0.055,0.48 -0.035,0.496 -0.016,0.497 v 6.074 l 0.016,0.566 0.035,0.531 0.07,0.551 0.11,0.531 0.105,0.516 0.16,0.512 0.156,0.496 0.196,0.48 0.215,0.477 0.23,0.461 0.266,0.461 0.281,0.426 0.301,0.425 0.32,0.407 0.336,0.39 0.355,0.371 0.372,0.356 0.39,0.336 0.406,0.316 0.426,0.305 0.426,0.281 0.461,0.266 0.461,0.23 0.476,0.215 0.481,0.191 0.496,0.161 0.512,0.16 0.515,0.105 0.532,0.106 0.546,0.074 0.532,0.035 0.57,0.016 0.547,-0.016 0.551,-0.035 0.531,-0.074 0.531,-0.106 0.512,-0.105 0.516,-0.16 0.496,-0.161 0.496,-0.191 0.476,-0.215 0.461,-0.23 0.445,-0.266 0.442,-0.281 0.426,-0.305 0.39,-0.316 0.387,-0.336 0.375,-0.356 0.371,-0.371 0.336,-0.39 0.32,-0.407 0.301,-0.425 0.266,-0.426 0.265,-0.461 0.231,-0.461 0.211,-0.477 0.195,-0.48 0.18,-0.496 0.14,-0.512 0.125,-0.516 0.086,-0.531 0.071,-0.551 0.035,-0.531 0.019,-0.566 v -6.074 l -0.019,-0.497 -0.016,-0.496 -0.07,-0.48 -0.07,-0.477 -0.11,-0.48 -0.121,-0.477 -0.144,-0.48 -0.157,-0.461 -0.179,-0.442 -0.211,-0.441 -0.231,-0.445 -0.25,-0.407 -0.246,-0.425 -0.301,-0.391 -0.3,-0.387 -0.321,-0.39 -0.09,0.051 0.375,-0.407 0.352,-0.426 0.336,-0.425 0.34,-0.442 0.336,-0.441 0.316,-0.445 0.305,-0.461 0.601,-0.922 0.282,-0.457 0.285,-0.481 0.265,-0.476 0.266,-0.481 0.246,-0.476 0.25,-0.496 0.461,-0.993 0.211,-0.496 0.215,-0.515 0.195,-0.512 0.195,-0.516 0.176,-0.511 0.176,-0.516 0.16,-0.531 0.141,-0.532 0.16,-0.531 0.25,-1.062 0.121,-0.532 0.109,-0.55 0.086,-0.547 0.09,-0.551 z" /><path
         id="path14208"
         style="fill:#000000;fill-opacity:1;fill-rule:evenodd;stroke:none"
         d="m 180.477,22.957 h 4.57 l -0.07,-20.551 -0.02,-0.23 -0.035,-0.231 -0.055,-0.211 -0.07,-0.211 -0.09,-0.195 -0.121,-0.18 -0.125,-0.175 -0.141,-0.16 -0.179,-0.161 -0.157,-0.121 -0.195,-0.109 -0.195,-0.106 -0.215,-0.07 -0.211,-0.055 -0.23,-0.035 -0.231,-0.015 -0.23,0.015 -0.211,0.035 -0.231,0.055 -0.195,0.07 -0.215,0.106 -0.176,0.109 -0.176,0.121 -0.16,0.161 -0.14,0.16 -0.145,0.175 -0.105,0.18 -0.09,0.195 -0.086,0.211 -0.055,0.211 -0.035,0.231 v 0.23 z" /><path
         id="path14210"
         style="fill:#000000;fill-opacity:1;fill-rule:evenodd;stroke:none"
         d="m 174.363,22.957 h 4.571 l -0.036,-16.031 -0.019,-0.231 -0.035,-0.214 -0.051,-0.227 -0.07,-0.195 -0.11,-0.215 -0.105,-0.176 -0.125,-0.18 -0.156,-0.156 -0.161,-0.144 -0.16,-0.141 -0.195,-0.106 -0.195,-0.089 -0.211,-0.086 -0.215,-0.055 -0.231,-0.035 h -0.461 l -0.23,0.035 -0.211,0.055 -0.211,0.086 -0.195,0.089 -0.18,0.106 -0.176,0.141 -0.16,0.144 -0.14,0.156 -0.141,0.18 -0.109,0.176 -0.086,0.215 -0.09,0.195 -0.055,0.227 -0.035,0.214 -0.016,0.231 z" /><path
         id="path14212"
         style="fill:#ffffff;fill-opacity:1;fill-rule:evenodd;stroke:none"
         d="m 185.809,42.18 -1.082,1.097 -0.106,0.125 -0.09,0.125 -0.07,0.125 -0.07,0.141 -0.055,0.141 -0.035,0.144 -0.035,0.156 v 11.465 l 0.019,0.141 0.035,0.125 0.071,0.125 0.086,0.105 0.109,0.086 0.105,0.075 0.141,0.035 0.141,0.015 0.144,-0.015 0.125,-0.035 0.121,-0.075 0.106,-0.086 0.09,-0.105 0.07,-0.125 0.035,-0.125 0.02,-0.141 z" /><path
         id="path14214"
         style="fill:#fefefe;fill-opacity:1;fill-rule:evenodd;stroke:none"
         d="m 173.582,42.18 0.09,13.519 v 0.141 l 0.055,0.125 0.05,0.125 0.09,0.105 0.106,0.086 0.125,0.075 0.125,0.035 0.14,0.015 0.16,-0.015 0.122,-0.035 0.125,-0.075 0.105,-0.086 0.09,-0.105 0.055,-0.125 0.05,-0.125 V 44.234 l -0.015,-0.156 -0.035,-0.144 -0.055,-0.141 -0.07,-0.141 -0.09,-0.144 -0.086,-0.106 -0.11,-0.125 z" /><path
         id="path14216"
         style="fill:#000000;fill-opacity:1;fill-rule:evenodd;stroke:none"
         d="m 40.23,100.078 v 0.301 l 0.02,0.32 0.035,0.282 0.035,0.3 0.055,0.301 0.07,0.301 0.071,0.285 0.089,0.285 0.106,0.281 0.105,0.286 0.125,0.265 0.282,0.531 0.16,0.266 0.16,0.246 0.176,0.25 1.527,1.895 0.387,0.531 0.375,0.531 0.336,0.551 0.336,0.547 0.32,0.57 0.301,0.582 0.301,0.586 0.265,0.586 9.848,22.711 0.215,0.406 0.23,0.41 0.246,0.372 0.285,0.355 0.301,0.316 0.32,0.321 0.336,0.281 0.372,0.25 0.371,0.23 0.41,0.211 0.406,0.18 0.426,0.141 0.441,0.105 0.442,0.09 0.445,0.051 0.461,0.019 31.074,-0.054 v -6.219 l -29.516,0.055 -0.175,-0.02 -0.196,-0.016 -0.179,-0.035 -0.176,-0.035 -0.176,-0.07 -0.18,-0.074 -0.16,-0.071 -0.156,-0.105 -0.144,-0.106 -0.141,-0.105 -0.125,-0.125 -0.121,-0.141 -0.125,-0.144 -0.106,-0.157 -0.09,-0.16 -0.089,-0.179 L 52.086,110 h 40.41 V 77.668 L 46.449,77.613 h -0.316 l -0.641,0.071 -0.301,0.054 -0.601,0.141 -0.281,0.105 -0.286,0.106 -0.285,0.125 -0.265,0.141 -0.246,0.16 -0.266,0.16 -0.231,0.16 -0.25,0.195 -0.21,0.196 -0.231,0.211 -0.195,0.214 -0.196,0.211 -0.195,0.246 -0.176,0.231 -0.16,0.266 -0.14,0.25 -0.141,0.285 -0.125,0.265 -0.106,0.282 -0.105,0.285 -0.074,0.3 -0.071,0.301 -0.05,0.301 -0.055,0.32 -0.016,0.317 v 0.32 l 0.036,16.211 z" /><path
         id="path14218"
         style="fill:#000000;fill-opacity:1;fill-rule:evenodd;stroke:none"
         d="M 46.484,75.188 H 61.422 V 61.297 l -0.02,-0.176 -0.015,-0.195 -0.035,-0.18 -0.036,-0.176 -0.054,-0.175 -0.055,-0.161 -0.07,-0.179 -0.16,-0.317 -0.176,-0.3 -0.211,-0.286 -0.231,-0.265 -0.265,-0.231 -0.285,-0.211 -0.301,-0.179 -0.32,-0.157 -0.176,-0.074 -0.16,-0.051 -0.176,-0.054 -0.18,-0.035 -0.176,-0.036 -0.195,-0.015 -0.176,-0.02 h -7.883 l -0.179,0.02 -0.196,0.015 -0.351,0.071 -0.18,0.054 -0.16,0.051 -0.176,0.074 -0.316,0.157 -0.305,0.179 -0.281,0.211 -0.266,0.231 -0.23,0.265 -0.215,0.286 -0.176,0.3 -0.16,0.317 -0.07,0.179 -0.051,0.161 -0.055,0.175 -0.035,0.176 -0.035,0.18 -0.02,0.195 -0.015,0.176 v 0.195 z" /><path
         id="path14220"
         style="fill:#fefefe;fill-opacity:1;fill-rule:evenodd;stroke:none"
         d="m 61.562,96.41 v -0.39 l -0.035,-0.372 -0.035,-0.39 -0.07,-0.352 -0.09,-0.375 -0.105,-0.351 -0.106,-0.356 -0.144,-0.336 -0.141,-0.32 -0.176,-0.336 -0.18,-0.301 -0.191,-0.32 -0.215,-0.281 -0.211,-0.285 -0.23,-0.266 -0.516,-0.516 -0.281,-0.226 -0.285,-0.231 -0.285,-0.215 -0.301,-0.195 -0.317,-0.176 -0.32,-0.16 -0.336,-0.16 -0.336,-0.121 -0.355,-0.125 -0.356,-0.106 -0.351,-0.074 -0.375,-0.07 -0.371,-0.051 -0.391,-0.019 -0.387,-0.016 -0.375,0.016 -0.386,0.019 -0.375,0.051 -0.372,0.07 -0.355,0.074 -0.352,0.106 -0.355,0.125 -0.336,0.121 -0.336,0.16 -0.32,0.16 -0.32,0.176 -0.301,0.195 -0.301,0.215 -0.281,0.231 -0.266,0.226 -0.266,0.25 -0.25,0.266 -0.23,0.266 -0.211,0.285 -0.215,0.281 -0.195,0.32 -0.176,0.301 -0.176,0.336 -0.144,0.32 -0.141,0.336 -0.105,0.356 -0.106,0.351 -0.09,0.375 -0.07,0.352 -0.035,0.39 -0.035,0.372 v 0.781 l 0.07,0.742 0.07,0.375 0.09,0.371 0.106,0.356 0.105,0.336 0.141,0.351 0.144,0.32 0.176,0.321 0.176,0.316 0.195,0.301 0.215,0.301 0.211,0.285 0.23,0.265 0.25,0.266 0.266,0.25 0.266,0.231 0.281,0.23 0.301,0.211 0.301,0.195 0.32,0.176 0.32,0.16 0.336,0.16 0.336,0.125 0.355,0.121 0.352,0.09 0.355,0.09 0.372,0.07 0.375,0.051 0.386,0.02 0.375,0.019 0.387,-0.019 0.391,-0.02 0.371,-0.051 0.375,-0.07 0.351,-0.09 0.356,-0.09 0.355,-0.121 0.336,-0.125 0.336,-0.16 0.32,-0.16 0.317,-0.176 0.301,-0.195 0.285,-0.211 0.285,-0.23 0.281,-0.231 0.516,-0.516 0.23,-0.265 0.211,-0.285 0.215,-0.301 0.191,-0.301 0.18,-0.316 0.176,-0.321 0.141,-0.336 0.144,-0.335 0.106,-0.336 0.105,-0.356 0.09,-0.371 0.07,-0.375 0.07,-0.742 z" /><path
         id="path14222"
         style="fill:#000000;fill-opacity:1;fill-rule:evenodd;stroke:none"
         d="m 102.453,137.352 h 0.406 l 30.668,0.054 0.461,-0.019 0.442,-0.051 0.441,-0.09 0.445,-0.105 0.426,-0.141 0.406,-0.18 0.407,-0.211 0.375,-0.23 0.371,-0.25 0.336,-0.281 0.32,-0.321 0.301,-0.316 0.281,-0.355 0.25,-0.372 0.231,-0.41 0.21,-0.406 9.727,-22.625 0.266,-0.602 0.285,-0.585 0.316,-0.583 0.321,-0.566 0.335,-0.551 0.356,-0.55 0.355,-0.547 0.387,-0.532 1.649,-1.949 0.175,-0.25 0.16,-0.246 0.161,-0.266 0.14,-0.25 0.145,-0.281 0.121,-0.265 0.109,-0.286 0.106,-0.281 0.09,-0.285 0.07,-0.285 0.07,-0.301 0.051,-0.301 0.035,-0.3 0.039,-0.282 0.016,-0.32 V 83.512 l -0.016,-0.317 -0.054,-0.32 -0.055,-0.301 -0.141,-0.601 -0.105,-0.285 -0.106,-0.282 -0.125,-0.265 -0.14,-0.285 -0.145,-0.25 -0.156,-0.247 -0.18,-0.246 -0.195,-0.25 -0.195,-0.211 -0.196,-0.214 -0.226,-0.211 -0.215,-0.196 -0.246,-0.195 -0.231,-0.16 -0.265,-0.16 -0.25,-0.157 -0.266,-0.144 -0.281,-0.125 -0.571,-0.211 -0.601,-0.141 -0.301,-0.054 -0.32,-0.036 -0.317,-0.035 h -0.32 l -45.902,0.055 h -0.141 V 110 h 40.41 l -8.558,19.645 -0.086,0.179 -0.09,0.16 -0.106,0.157 -0.125,0.144 -0.125,0.141 -0.121,0.125 -0.144,0.105 -0.141,0.106 -0.16,0.105 -0.16,0.071 -0.176,0.074 -0.176,0.07 -0.179,0.035 -0.176,0.035 -0.176,0.016 -0.195,0.02 -29.125,-0.055 h -0.391 z" /><path
         id="path14224"
         style="fill:#fefefe;fill-opacity:1;fill-rule:evenodd;stroke:none"
         d="m 148.496,96.27 v -0.391 l -0.035,-0.371 -0.055,-0.375 -0.051,-0.371 -0.089,-0.371 -0.106,-0.356 -0.105,-0.336 -0.145,-0.355 -0.14,-0.317 -0.176,-0.336 -0.176,-0.3 -0.195,-0.321 -0.215,-0.285 -0.211,-0.281 -0.25,-0.266 -0.246,-0.265 -0.25,-0.25 -0.281,-0.231 -0.286,-0.23 -0.281,-0.211 -0.305,-0.195 -0.316,-0.176 -0.32,-0.16 -0.336,-0.161 -0.336,-0.125 -0.356,-0.125 -0.355,-0.105 -0.352,-0.07 -0.371,-0.071 -0.375,-0.054 -0.39,-0.016 -0.371,-0.02 -0.391,0.02 -0.387,0.016 -0.375,0.054 -0.371,0.071 -0.355,0.07 -0.352,0.105 -0.355,0.125 -0.336,0.125 -0.336,0.161 -0.321,0.16 -0.32,0.176 -0.301,0.195 -0.3,0.211 -0.266,0.23 -0.281,0.231 -0.266,0.25 -0.25,0.265 -0.23,0.266 -0.211,0.281 -0.215,0.285 -0.196,0.321 -0.175,0.3 -0.176,0.336 -0.145,0.317 -0.14,0.355 -0.106,0.336 -0.105,0.356 -0.09,0.371 -0.07,0.371 -0.036,0.375 -0.035,0.371 v 0.781 l 0.071,0.742 0.07,0.371 0.09,0.375 0.105,0.352 0.106,0.336 0.14,0.355 0.145,0.321 0.176,0.316 0.175,0.32 0.196,0.301 0.215,0.301 0.211,0.285 0.23,0.266 0.25,0.265 0.266,0.247 0.281,0.23 0.266,0.23 0.3,0.215 0.301,0.196 0.32,0.175 0.321,0.161 0.336,0.16 0.336,0.121 0.355,0.125 0.352,0.09 0.355,0.086 0.371,0.074 0.375,0.051 0.387,0.019 0.391,0.016 0.371,-0.016 0.39,-0.019 0.375,-0.051 0.371,-0.074 0.352,-0.086 0.355,-0.09 0.356,-0.125 0.336,-0.121 0.336,-0.16 0.32,-0.161 0.316,-0.175 0.305,-0.196 0.281,-0.215 0.286,-0.23 0.281,-0.23 0.25,-0.247 0.246,-0.265 0.25,-0.266 0.211,-0.285 0.215,-0.301 0.195,-0.301 0.176,-0.32 0.176,-0.316 0.14,-0.321 0.145,-0.355 0.105,-0.336 0.106,-0.352 0.089,-0.375 0.051,-0.371 0.055,-0.371 0.035,-0.371 z" /><path
         id="path14226"
         style="fill:#000000;fill-opacity:1;fill-rule:evenodd;stroke:none"
         d="m 133.527,75.188 h 14.934 l -0.106,-13.696 v -0.195 l -0.019,-0.176 -0.016,-0.195 -0.035,-0.18 -0.035,-0.176 -0.055,-0.175 -0.054,-0.161 -0.071,-0.179 -0.16,-0.317 -0.176,-0.3 -0.211,-0.286 -0.23,-0.265 -0.266,-0.231 -0.285,-0.211 -0.301,-0.179 -0.32,-0.157 -0.176,-0.074 -0.16,-0.051 -0.176,-0.054 -0.175,-0.035 -0.18,-0.036 -0.195,-0.015 -0.176,-0.02 H 137 l -0.18,0.02 -0.195,0.015 -0.352,0.071 -0.179,0.054 -0.156,0.051 -0.18,0.074 -0.317,0.157 -0.304,0.179 -0.282,0.211 -0.265,0.231 -0.231,0.265 -0.211,0.286 -0.179,0.3 -0.16,0.317 -0.071,0.179 -0.05,0.161 -0.055,0.175 -0.035,0.176 -0.036,0.18 -0.019,0.195 -0.016,0.176 z" /></g></g></svg>