<?xml version="1.0" encoding="UTF-8" standalone="no"?>
<svg
   version="1.1"
   id="svg4440"
   xml:space="preserve"
   width="2268.2026"
   height="2268.2026"
   viewBox="0 0 2268.2026 2268.2026"
   xmlns="http://www.w3.org/2000/svg"
   xmlns:svg="http://www.w3.org/2000/svg"
   xmlns:rdf="http://www.w3.org/1999/02/22-rdf-syntax-ns#"
   xmlns:cc="http://creativecommons.org/ns#"
   xmlns:dc="http://purl.org/dc/elements/1.1/"><metadata
     id="metadata4446"><rdf:RDF><cc:Work
         rdf:about=""><dc:format>image/svg+xml</dc:format><dc:type
           rdf:resource="http://purl.org/dc/dcmitype/StillImage" /></cc:Work></rdf:RDF></metadata><defs
     id="defs4444" /><path
     d="m 151.432,2267.9533 c -83.494668,0 -151.18133334,-67.688 -151.18133334,-151.1827 V 151.43199 C 0.25066666,67.937322 67.937332,0.2506567 151.432,0.2506567 h 1965.3386 c 83.4947,0 151.1827,67.6866653 151.1827,151.1813333 V 2116.7706 c 0,83.4947 -67.688,151.1827 -151.1827,151.1827 z"
     style="fill:#ffffff;fill-opacity:1;fill-rule:nonzero;stroke:#231f20;stroke-width:0.5;stroke-linecap:butt;stroke-linejoin:miter;stroke-miterlimit:4;stroke-dasharray:none;stroke-opacity:1"
     id="path4454" /><path
     d="m 151.432,38.046656 c -62.625336,0 -113.385334,50.759998 -113.385334,113.379994 V 2116.7706 c 0,62.6253 50.759998,113.3853 113.385334,113.3853 h 1965.3386 c 62.62,0 113.3853,-50.76 113.3853,-113.3853 V 151.42665 c 0,-62.619996 -50.7653,-113.379994 -113.3853,-113.379994 z m 0,56.693332 h 1965.3386 c 31.312,0 56.6933,25.380002 56.6933,56.686662 V 2116.7706 c 0,31.3133 -25.3813,56.6933 -56.6933,56.6933 H 151.432 c -31.312,0 -56.692002,-25.38 -56.692002,-56.6933 V 151.42665 c 0,-31.30666 25.380002,-56.686662 56.692002,-56.686662 z"
     style="fill:#000000;fill-opacity:1;fill-rule:nonzero;stroke:none;stroke-width:1.33333325"
     id="path4456" /><path
     id="Car"
     style="fill:#000000;fill-rule:evenodd;stroke:none;stroke-width:1.04"
     d="m 889.01754,1277.291 c -115.91001,-0.096 -94.77913,16.0975 -149.7793,143.209 -110.57811,272.0008 -100.62367,114.1344 -98.13477,297.6016 3.91112,173.8672 -61.51174,126.9338 491.73433,134.4004 557.5129,-6.0444 491.0244,40.1772 494.9356,-139.7344 0.7111,-163.9116 8.8894,-32.3559 -97.0665,-283.7344 -84.6223,-196.2673 -10.3112,-142.9337 -378.6679,-150.4004 -129.3338,2.1111 -210.3351,-1.298 -263.02146,-1.3418 z m -36.13282,62.0156 c 4.44508,-0.081 10.35794,0.172 18.61914,0.127 l 529.49024,-0.057 c 28.664,0.1054 24.4595,-1.7563 36.2675,25.5996 l 75.3125,173.9238 -759.47063,2.1328 75.73438,-174.9336 c 10.59757,-23.3054 10.71165,-26.5506 24.04687,-26.793 z m -83.51367,263.4473 a 69.160004,69.16021 0 0 1 69.16016,69.1602 69.160004,69.16021 0 0 1 -69.16016,69.1601 69.160004,69.16021 0 0 1 -69.16015,-69.1601 69.160004,69.16021 0 0 1 69.16015,-69.1602 z m 728.00195,0 a 69.16021,69.16021 0 0 1 69.1601,69.1602 69.16021,69.16021 0 0 1 -69.1601,69.1601 69.16021,69.16021 0 0 1 -69.1602,-69.1601 69.16021,69.16021 0 0 1 69.1602,-69.1602 z m -656.80273,269.5 -141.62891,0.3164 c 1.26421,177.6599 -13.27533,168.3769 78.69532,168.7324 77.23481,-1.1457 62.49903,8.769 62.93359,-169.0488 z m 587.73633,1.5801 c 1.1457,178.4105 -9.4031,165.2961 73.5996,166.4023 80.2768,-0.4741 67.3193,11.6921 68.2675,-166.4023 z" /><g
     id="layer1"
     transform="matrix(1.740055,0,0,1.740055,541.30762,205.36682)"
     style="fill:#ffffff"><path
       d="m 438.12826,429.16927 c -62.79839,-3.16426 -155.20224,7.89495 -186.20451,-31.3992 -14.20607,-74.76934 -54.80076,-112.40662 -124.50145,-113.18313 -42.795768,-82.64828 34.88862,-95.59972 87.99076,-116.8342 3.3733,38.41563 1.30629,78.34741 62.06817,100.7695 2.43911,-11.88771 7.42309,-21.59411 23.36684,-21.90641 l 89.81629,0.36511 63.52859,-49.65454 c 10.2664,16.32783 30.63852,37.24918 30.66898,48.92432 l 96.38822,0.36511 c 7.01925,5.97861 12.97283,21.84281 -1.09532,37.60601 -57.74129,-1.75276 -162.68681,4.55533 -142.02657,144.94743 z"
       style="fill:#000000;fill-opacity:1;fill-rule:evenodd;stroke:none;stroke-width:1px;stroke-linecap:butt;stroke-linejoin:miter;stroke-opacity:1"
       id="path4749" /><path
       d="m 281.45311,113.13794 0.25817,-34.043529 38.12235,-5.174139 V 46.902363 l -38.89686,6.464987 c 2.8605,-24.34011 18.51028,-41.939346 52.98479,-47.0361453 21.6463,1.5255947 44.34631,2.6992313 57.25914,43.1895493 3.78428,16.060343 1.42553,32.309362 -8.54869,46.305931 -32.28759,-17.699463 -56.45288,-5.617153 -78.49798,14.239165 z"
       style="fill:#000000;fill-opacity:1;fill-rule:evenodd;stroke:none;stroke-width:1px;stroke-linecap:butt;stroke-linejoin:miter;stroke-opacity:1"
       id="path5636" /><path
       d="m 215.04795,186.7383 113.54824,-85.80012 c 15.26233,-8.1407 32.0941,-9.689721 52.21028,2.55575 17.19617,15.62165 46.2444,58.89814 69.37031,88.35586 l -64.62391,48.37667 -62.06818,-86.34778 -98.21375,75.21202 c -7.55995,-13.19498 -9.32895,-28.68129 -10.22299,-42.3524 z"
       style="fill:#000000;fill-opacity:1;fill-rule:evenodd;stroke:none;stroke-width:1px;stroke-linecap:butt;stroke-linejoin:miter;stroke-opacity:1"
       id="path6523" /><g
       id="path7410"
       transform="matrix(0.974466,0,0,0.974466,-15.37667,-10.08382)"><path
         style="color:#000000;fill:#000000;stroke-linecap:round;stroke-linejoin:round;-inkscape-stroke:none"
         d="m 158.0918,313.07812 c -55.63979,10e-6 -101.117984,45.48517 -101.109378,101.125 -0.0054,55.63715 45.471558,101.11915 101.109378,101.11915 55.63913,0 101.1169,-45.48411 101.10937,-101.12305 0.006,-55.63804 -45.4709,-101.12109 -101.10937,-101.1211 z m 0,35 c 36.72269,0 66.11505,29.39644 66.10937,66.11915 a 17.501599,17.501599 0 0 0 0,0.006 c 0.006,36.72272 -29.38668,66.11915 -66.10937,66.11915 -36.72269,0 -66.115058,-29.39643 -66.109378,-66.11915 a 17.501599,17.501599 0 0 0 0,-0.002 17.501599,17.501599 0 0 0 0,-0.002 17.501599,17.501599 0 0 0 0,-0.002 c -0.0057,-36.72271 29.386688,-66.11914 66.109378,-66.11915 z"
         id="path16260" /></g><g
       id="path8297"
       transform="matrix(0.974466,0,0,0.974466,388.6178,-9.97323)"><path
         style="color:#000000;fill:#000000;stroke-linecap:round;stroke-linejoin:round;-inkscape-stroke:none"
         d="m 158.0918,313.07812 c -55.63979,10e-6 -101.117984,45.48517 -101.109378,101.125 -0.0054,55.63715 45.471558,101.11915 101.109378,101.11915 55.63913,0 101.1169,-45.48411 101.10937,-101.12305 0.006,-55.63804 -45.4709,-101.12109 -101.10937,-101.1211 z m 0,35 c 36.72269,0 66.11505,29.39644 66.10937,66.11915 a 17.501599,17.501599 0 0 0 0,0.006 c 0.006,36.72272 -29.38668,66.11915 -66.10937,66.11915 -36.72269,0 -66.115058,-29.39643 -66.109378,-66.11915 a 17.501599,17.501599 0 0 0 0,-0.002 17.501599,17.501599 0 0 0 0,-0.002 17.501599,17.501599 0 0 0 0,-0.002 c -0.0057,-36.72271 29.386688,-66.11914 66.109378,-66.11915 z"
         id="path16318" /></g></g></svg>
